<?xml version="1.0" encoding="UTF-8"?>
<!DOCTYPE svg PUBLIC "-//W3C//DTD SVG 1.1//EN" "http://www.w3.org/Graphics/SVG/1.1/DTD/svg11.dtd">
<!-- Creator: CorelDRAW 2019 (64-Bit) -->
<svg xmlns="http://www.w3.org/2000/svg" xml:space="preserve" width="6.14173in" height="6.14278in" version="1.1" style="shape-rendering:geometricPrecision; text-rendering:geometricPrecision; image-rendering:optimizeQuality; fill-rule:evenodd; clip-rule:evenodd"
viewBox="0 0 1984.1 1984.5"
 xmlns:xlink="http://www.w3.org/1999/xlink">
 <defs>
  <style type="text/css">
   <![CDATA[
    .fil0 {fill:#141C4F}
    .fil4 {fill:#1C130E}
    .fil1 {fill:#D1DDF3}
    .fil2 {fill:#EAF1FB}
    .fil3 {fill:#F2A57E}
   ]]>
  </style>
 </defs>
 <g id="Layer_x0020_1">
  <metadata id="CorelCorpID_0Corel-Layer"/>
  <circle class="fil0" cx="992.1" cy="992.1" r="992.1"/>
  <path class="fil1" d="M1367.3 1910.8c-5,-5.5 -3.7,-15.8 -5,-27.8l-13.9 -112.1c-16.3,-131.5 -81.2,-101.8 -174.6,-152.4 -51.3,-27.8 -50.6,-8.6 -68.8,-95.2 -13.5,5.3 -9.8,4.7 -18.3,16.5 -35.5,49.2 -45.1,48.6 -49.5,97.2 -1.3,14.4 -1.7,39.7 -8.6,51.5 -13.4,-75.9 -10.3,-90.9 -56.3,-120.2 -20.5,-13.1 -87,-61.7 -110.7,-60.3 -33.7,109 0.5,54.3 -145.3,106.1 -71.7,25.5 -177.3,44.2 -189.4,121.3 -3.5,22.6 -5.3,44.6 -8.2,67.3 -1.4,11.4 -2.7,22.3 -3.8,33.7 -1.2,12.3 -0.3,19.8 -3.4,24 263.7,146.3 579.5,163.4 855.7,50.4z"/>
  <path class="fil2" d="M864.7 637.9c33,-0.1 68.1,-12.5 92.7,-24.6 51.5,-25.3 21.1,0.5 88.4,5.4 42.6,3.1 75.8,-20.5 95.8,-12.9 18.8,7.2 41.1,18.5 63.6,21.9 14.1,2.1 9.3,-2.9 18.9,4.6 183.4,19.8 174.6,-152.4 107.3,-245.4 -57.3,-79.2 -172.5,-123.4 -314.9,-125.8 -422.1,-6.9 -393.5,414.5 -151.8,376.7z"/>
  <path class="fil3" d="M885.9 1430.1c-0.7,16.4 -3.2,29.7 -5.4,45 -1,6.7 -2,16.2 -4.6,20.9 -7.8,14.3 1.9,-0.8 -14.1,11.9 23.7,-1.4 90.2,47.2 110.7,60.3 46,29.3 42.9,44.3 56.3,120.2 6.9,-11.9 7.3,-37.2 8.6,-51.5 4.5,-48.6 14,-48 49.5,-97.2 8.5,-11.8 4.7,-11.2 18.3,-16.5 -1,-0.3 -2.7,-1.5 -3.2,-0.6 -0,0 -6.8,1.3 -13,-11.1l15.8 -4.9c6.1,-0.9 11.4,0.3 19.4,-1.2 13.4,-2.5 18.1,-9.8 24.8,-16.9 42.6,-45.2 68.5,-79.4 95.1,-144 19.7,-47.9 43.9,-232.5 28.6,-281.3 -3.7,-24.8 -20.2,-80.6 -43.9,-94.8 -21.6,76.5 -139.7,182.8 -199.7,207.3 -31.3,12.8 -74.7,24.3 -113.1,22.8 -14.9,-8.9 -26.8,-31.5 -49.4,-29.2 -36,3.8 -37.5,74.7 -15.1,108.7 14,21.3 28.4,17.5 48.6,27.8 3.7,30.7 -8.1,92.3 -13.9,124.1z"/>
  <path class="fil1" d="M864.7 637.9l-27.3 282.8c68,5.5 254.6,0 346.9,0.9 19.1,0.2 35.8,3.5 45.7,-6.7l-17.2 -280.2c4.6,-2.3 -1.5,-3.1 11.2,-2.4 -9.6,-7.5 -4.8,-2.5 -18.9,-4.6 -22.5,-3.4 -44.8,-14.8 -63.6,-21.9 -20,-7.6 -53.1,16 -95.8,12.9 -67.3,-4.9 -36.9,-30.7 -88.4,-5.4 -24.6,12.1 -59.7,24.5 -92.7,24.6z"/>
  <path class="fil4" d="M837.4 920.7c-24.4,16.1 -45.3,79.4 -52.2,116.6 -9.4,50.9 -7.2,106.3 3.7,157.1 28.2,131.8 80.2,115.6 78.3,174.2 -1,30.5 -10.8,50.9 18.7,61.4 5.8,-31.8 17.6,-93.4 13.9,-124.1 -20.1,-10.2 -34.5,-6.5 -48.6,-27.8 -22.4,-34 -20.9,-105 15.1,-108.7 22.7,-2.4 34.6,20.2 49.4,29.2 38.4,1.6 81.8,-10 113.1,-22.8 60,-24.5 178.1,-130.8 199.7,-207.3 23.6,14.2 40.1,70 43.9,94.8 27.1,0.9 1.4,-127.1 -42.4,-148.4 -9.9,10.2 -26.7,6.9 -45.7,6.7 -92.3,-0.9 -278.9,4.6 -346.9,-0.9z"/>
 </g>
</svg>
